# xmcd CD database file generated by OrangeCD 5.2
#
# Track frame offsets:
#	150
#	14292
#	32125
#	47856
#	64519
#	88745
#	101225
#	130605
#	143697
#	161641
#	178975
#	191112
#	221398
#	229437
#
# Disc length: 4087 seconds
#
# Revision: 3
# Processed by: cddbd v1.5.1PL0 Copyright (c) Steve Scherf et al.
# Submitted via: OrangeCD 5.2
#
DISCID=c90ff50e
DTITLE=Vidar Busk and His True Believers - Atomic Swing
DYEAR=1999
DGENRE=Blues
TTITLE0=Sho' Nuff
TTITLE1=Red Lipstick
TTITLE2=West Side Baby
TTITLE3=Hold On
TTITLE4=Shoot Ya Down
TTITLE5=Keep It Way Up High
TTITLE6=Harlem Nocturne
TTITLE7=Sally Sue Brown
TTITLE8=Don't Diz Me Babe
TTITLE9=She's A Babe
TTITLE10=Two Hits And A Sneeze
TTITLE11=Atomic Swing
TTITLE12=Dream On Silver Surfer
TTITLE13=Thirteen Women
EXTD=
EXTT0=
EXTT1=
EXTT2=
EXTT3=
EXTT4=
EXTT5=
EXTT6=
EXTT7=
EXTT8=
EXTT9=
EXTT10=
EXTT11=
EXTT12=
EXTT13=
PLAYORDER=
